<mxfile host="app.diagrams.net" modified="2023-05-11T16:43:03.038Z" agent="Mozilla/5.0 (Windows NT 10.0; Win64; x64) AppleWebKit/537.36 (KHTML, like Gecko) Chrome/113.0.0.0 Safari/537.36" etag="6mFeSYI6SQ86to9-JLYq" version="21.2.9" type="device">
  <diagram name="페이지-1" id="ShG0JSYcQ5za65UqrKwV">
    <mxGraphModel dx="2074" dy="1124" grid="1" gridSize="10" guides="1" tooltips="1" connect="1" arrows="1" fold="1" page="1" pageScale="1" pageWidth="1200" pageHeight="1000" math="0" shadow="0">
      <root>
        <mxCell id="0" />
        <mxCell id="1" parent="0" />
        <mxCell id="ZBwO2b9oNykHJdR8bDc2-76" value="" style="group" parent="1" vertex="1" connectable="0">
          <mxGeometry x="40" y="550" width="1080" height="480" as="geometry" />
        </mxCell>
        <mxCell id="ZBwO2b9oNykHJdR8bDc2-1" value="" style="rounded=0;whiteSpace=wrap;html=1;strokeWidth=2;" parent="ZBwO2b9oNykHJdR8bDc2-76" vertex="1">
          <mxGeometry width="1080" height="480" as="geometry" />
        </mxCell>
        <mxCell id="ZBwO2b9oNykHJdR8bDc2-2" value="" style="shape=umlBoundary;whiteSpace=wrap;html=1;" parent="ZBwO2b9oNykHJdR8bDc2-76" vertex="1">
          <mxGeometry x="450" y="110" width="100" height="80" as="geometry" />
        </mxCell>
        <mxCell id="ZBwO2b9oNykHJdR8bDc2-3" value="" style="ellipse;shape=umlEntity;whiteSpace=wrap;html=1;" parent="ZBwO2b9oNykHJdR8bDc2-76" vertex="1">
          <mxGeometry x="730" y="300" width="80" height="80" as="geometry" />
        </mxCell>
        <mxCell id="ZBwO2b9oNykHJdR8bDc2-4" value="" style="ellipse;shape=umlControl;whiteSpace=wrap;html=1;" parent="ZBwO2b9oNykHJdR8bDc2-76" vertex="1">
          <mxGeometry x="735" y="110" width="70" height="80" as="geometry" />
        </mxCell>
        <mxCell id="ZBwO2b9oNykHJdR8bDc2-5" value="Normal User" style="shape=umlActor;verticalLabelPosition=bottom;verticalAlign=top;html=1;outlineConnect=0;" parent="ZBwO2b9oNykHJdR8bDc2-76" vertex="1">
          <mxGeometry x="240" y="110" width="40" height="80" as="geometry" />
        </mxCell>
        <mxCell id="ZBwO2b9oNykHJdR8bDc2-6" value=":ShowHireInfoDetailUI" style="text;html=1;resizable=0;autosize=1;align=center;verticalAlign=middle;points=[];fillColor=none;strokeColor=none;rounded=0;" parent="ZBwO2b9oNykHJdR8bDc2-76" vertex="1">
          <mxGeometry x="430" y="190" width="140" height="30" as="geometry" />
        </mxCell>
        <mxCell id="ZBwO2b9oNykHJdR8bDc2-7" value=":ShowHireInfoDetail" style="text;html=1;resizable=0;autosize=1;align=center;verticalAlign=middle;points=[];fillColor=none;strokeColor=none;rounded=0;" parent="ZBwO2b9oNykHJdR8bDc2-76" vertex="1">
          <mxGeometry x="705" y="190" width="130" height="30" as="geometry" />
        </mxCell>
        <mxCell id="ZBwO2b9oNykHJdR8bDc2-8" value=":HireInfo" style="text;html=1;resizable=0;autosize=1;align=center;verticalAlign=middle;points=[];fillColor=none;strokeColor=none;rounded=0;" parent="ZBwO2b9oNykHJdR8bDc2-76" vertex="1">
          <mxGeometry x="735" y="390" width="70" height="30" as="geometry" />
        </mxCell>
        <mxCell id="ZBwO2b9oNykHJdR8bDc2-9" value="" style="endArrow=none;html=1;rounded=0;strokeWidth=2;" parent="ZBwO2b9oNykHJdR8bDc2-76" edge="1">
          <mxGeometry width="50" height="50" relative="1" as="geometry">
            <mxPoint x="440" y="150" as="sourcePoint" />
            <mxPoint x="310" y="150" as="targetPoint" />
          </mxGeometry>
        </mxCell>
        <mxCell id="ZBwO2b9oNykHJdR8bDc2-10" value="" style="endArrow=none;html=1;rounded=0;strokeWidth=2;" parent="ZBwO2b9oNykHJdR8bDc2-76" edge="1">
          <mxGeometry width="50" height="50" relative="1" as="geometry">
            <mxPoint x="720" y="150" as="sourcePoint" />
            <mxPoint x="560" y="150" as="targetPoint" />
          </mxGeometry>
        </mxCell>
        <mxCell id="ZBwO2b9oNykHJdR8bDc2-11" value="" style="endArrow=none;html=1;rounded=0;entryX=0.509;entryY=1.1;entryDx=0;entryDy=0;entryPerimeter=0;strokeWidth=2;" parent="ZBwO2b9oNykHJdR8bDc2-76" target="ZBwO2b9oNykHJdR8bDc2-7" edge="1">
          <mxGeometry width="50" height="50" relative="1" as="geometry">
            <mxPoint x="771" y="290" as="sourcePoint" />
            <mxPoint x="650" y="310" as="targetPoint" />
          </mxGeometry>
        </mxCell>
        <mxCell id="ZBwO2b9oNykHJdR8bDc2-12" value="" style="endArrow=classic;html=1;rounded=0;strokeWidth=2;" parent="ZBwO2b9oNykHJdR8bDc2-76" edge="1">
          <mxGeometry width="50" height="50" relative="1" as="geometry">
            <mxPoint x="320" y="140" as="sourcePoint" />
            <mxPoint x="430" y="140" as="targetPoint" />
          </mxGeometry>
        </mxCell>
        <mxCell id="ZBwO2b9oNykHJdR8bDc2-13" value="" style="endArrow=classic;html=1;rounded=0;strokeWidth=2;" parent="ZBwO2b9oNykHJdR8bDc2-76" edge="1">
          <mxGeometry width="50" height="50" relative="1" as="geometry">
            <mxPoint x="570" y="140" as="sourcePoint" />
            <mxPoint x="710" y="140" as="targetPoint" />
          </mxGeometry>
        </mxCell>
        <mxCell id="ZBwO2b9oNykHJdR8bDc2-14" value="" style="endArrow=classic;html=1;rounded=0;strokeWidth=2;" parent="ZBwO2b9oNykHJdR8bDc2-76" edge="1">
          <mxGeometry width="50" height="50" relative="1" as="geometry">
            <mxPoint x="710" y="160" as="sourcePoint" />
            <mxPoint x="570" y="160" as="targetPoint" />
          </mxGeometry>
        </mxCell>
        <mxCell id="ZBwO2b9oNykHJdR8bDc2-15" value="" style="endArrow=classic;html=1;rounded=0;strokeWidth=2;" parent="ZBwO2b9oNykHJdR8bDc2-76" edge="1">
          <mxGeometry width="50" height="50" relative="1" as="geometry">
            <mxPoint x="780" y="230" as="sourcePoint" />
            <mxPoint x="780" y="280" as="targetPoint" />
          </mxGeometry>
        </mxCell>
        <mxCell id="ZBwO2b9oNykHJdR8bDc2-16" value="3:searchHireInfo()&lt;br&gt;4:selectHireInfoDetail()" style="text;html=1;resizable=0;autosize=1;align=left;verticalAlign=middle;points=[];fillColor=none;strokeColor=none;rounded=0;" parent="ZBwO2b9oNykHJdR8bDc2-76" vertex="1">
          <mxGeometry x="320" y="90" width="150" height="40" as="geometry" />
        </mxCell>
        <mxCell id="ZBwO2b9oNykHJdR8bDc2-17" value="3.1:sendSearchHireInfo()&lt;br&gt;4.1:sendSelectHireInfoDetail()" style="text;html=1;resizable=0;autosize=1;align=left;verticalAlign=middle;points=[];fillColor=none;strokeColor=none;rounded=0;" parent="ZBwO2b9oNykHJdR8bDc2-76" vertex="1">
          <mxGeometry x="570" y="90" width="180" height="40" as="geometry" />
        </mxCell>
        <mxCell id="ZBwO2b9oNykHJdR8bDc2-18" value="2:startInterface()" style="text;html=1;resizable=0;autosize=1;align=center;verticalAlign=middle;points=[];fillColor=none;strokeColor=none;rounded=0;" parent="ZBwO2b9oNykHJdR8bDc2-76" vertex="1">
          <mxGeometry x="580" y="170" width="110" height="30" as="geometry" />
        </mxCell>
        <mxCell id="ZBwO2b9oNykHJdR8bDc2-19" value="1*[For all HireInfo]:getHireInfo()&lt;br&gt;4.1.1:getHireInfoDetails()" style="text;html=1;resizable=0;autosize=1;align=left;verticalAlign=middle;points=[];fillColor=none;strokeColor=none;rounded=0;" parent="ZBwO2b9oNykHJdR8bDc2-76" vertex="1">
          <mxGeometry x="790" y="235" width="190" height="40" as="geometry" />
        </mxCell>
        <mxCell id="ZBwO2b9oNykHJdR8bDc2-20" value="" style="rounded=0;whiteSpace=wrap;html=1;strokeWidth=2;" parent="ZBwO2b9oNykHJdR8bDc2-76" vertex="1">
          <mxGeometry width="200" height="40" as="geometry" />
        </mxCell>
        <mxCell id="ZBwO2b9oNykHJdR8bDc2-21" value="&lt;font style=&quot;font-size: 16px;&quot;&gt;&lt;b&gt;sd Show hire info detail&lt;/b&gt;&lt;/font&gt;" style="text;html=1;resizable=0;autosize=1;align=center;verticalAlign=middle;points=[];fillColor=none;strokeColor=none;rounded=0;strokeWidth=2;" parent="ZBwO2b9oNykHJdR8bDc2-76" vertex="1">
          <mxGeometry y="5" width="200" height="30" as="geometry" />
        </mxCell>
        <mxCell id="ZBwO2b9oNykHJdR8bDc2-98" value="" style="rounded=0;whiteSpace=wrap;html=1;strokeWidth=2;" parent="1" vertex="1">
          <mxGeometry x="40" y="40" width="1080" height="480" as="geometry" />
        </mxCell>
        <mxCell id="ZBwO2b9oNykHJdR8bDc2-99" value="" style="shape=umlBoundary;whiteSpace=wrap;html=1;" parent="1" vertex="1">
          <mxGeometry x="490" y="150" width="100" height="80" as="geometry" />
        </mxCell>
        <mxCell id="ZBwO2b9oNykHJdR8bDc2-100" value="" style="ellipse;shape=umlEntity;whiteSpace=wrap;html=1;" parent="1" vertex="1">
          <mxGeometry x="770" y="340" width="80" height="80" as="geometry" />
        </mxCell>
        <mxCell id="ZBwO2b9oNykHJdR8bDc2-101" value="" style="ellipse;shape=umlControl;whiteSpace=wrap;html=1;" parent="1" vertex="1">
          <mxGeometry x="775" y="150" width="70" height="80" as="geometry" />
        </mxCell>
        <mxCell id="ZBwO2b9oNykHJdR8bDc2-102" value="Normal User" style="shape=umlActor;verticalLabelPosition=bottom;verticalAlign=top;html=1;outlineConnect=0;" parent="1" vertex="1">
          <mxGeometry x="280" y="150" width="40" height="80" as="geometry" />
        </mxCell>
        <mxCell id="ZBwO2b9oNykHJdR8bDc2-103" value=":SearchHireInfoUI" style="text;html=1;resizable=0;autosize=1;align=center;verticalAlign=middle;points=[];fillColor=none;strokeColor=none;rounded=0;" parent="1" vertex="1">
          <mxGeometry x="480" y="230" width="120" height="30" as="geometry" />
        </mxCell>
        <mxCell id="ZBwO2b9oNykHJdR8bDc2-104" value=":SearchHireInfo" style="text;html=1;resizable=0;autosize=1;align=center;verticalAlign=middle;points=[];fillColor=none;strokeColor=none;rounded=0;" parent="1" vertex="1">
          <mxGeometry x="755" y="230" width="110" height="30" as="geometry" />
        </mxCell>
        <mxCell id="ZBwO2b9oNykHJdR8bDc2-105" value=":HireInfo" style="text;html=1;resizable=0;autosize=1;align=center;verticalAlign=middle;points=[];fillColor=none;strokeColor=none;rounded=0;" parent="1" vertex="1">
          <mxGeometry x="775" y="420" width="70" height="30" as="geometry" />
        </mxCell>
        <mxCell id="ZBwO2b9oNykHJdR8bDc2-106" value="" style="endArrow=none;html=1;rounded=0;strokeWidth=2;" parent="1" edge="1">
          <mxGeometry width="50" height="50" relative="1" as="geometry">
            <mxPoint x="480" y="190" as="sourcePoint" />
            <mxPoint x="350" y="190" as="targetPoint" />
          </mxGeometry>
        </mxCell>
        <mxCell id="ZBwO2b9oNykHJdR8bDc2-107" value="" style="endArrow=none;html=1;rounded=0;strokeWidth=2;" parent="1" edge="1">
          <mxGeometry width="50" height="50" relative="1" as="geometry">
            <mxPoint x="760" y="190" as="sourcePoint" />
            <mxPoint x="600" y="190" as="targetPoint" />
          </mxGeometry>
        </mxCell>
        <mxCell id="ZBwO2b9oNykHJdR8bDc2-108" value="" style="endArrow=none;html=1;rounded=0;entryX=0.509;entryY=1.1;entryDx=0;entryDy=0;entryPerimeter=0;strokeWidth=2;" parent="1" target="ZBwO2b9oNykHJdR8bDc2-104" edge="1">
          <mxGeometry width="50" height="50" relative="1" as="geometry">
            <mxPoint x="811" y="330" as="sourcePoint" />
            <mxPoint x="690" y="350" as="targetPoint" />
          </mxGeometry>
        </mxCell>
        <mxCell id="ZBwO2b9oNykHJdR8bDc2-109" value="" style="endArrow=classic;html=1;rounded=0;strokeWidth=2;" parent="1" edge="1">
          <mxGeometry width="50" height="50" relative="1" as="geometry">
            <mxPoint x="360" y="180" as="sourcePoint" />
            <mxPoint x="470" y="180" as="targetPoint" />
          </mxGeometry>
        </mxCell>
        <mxCell id="ZBwO2b9oNykHJdR8bDc2-110" value="" style="endArrow=classic;html=1;rounded=0;strokeWidth=2;" parent="1" edge="1">
          <mxGeometry width="50" height="50" relative="1" as="geometry">
            <mxPoint x="610" y="180" as="sourcePoint" />
            <mxPoint x="750" y="180" as="targetPoint" />
          </mxGeometry>
        </mxCell>
        <mxCell id="ZBwO2b9oNykHJdR8bDc2-111" value="" style="endArrow=classic;html=1;rounded=0;strokeWidth=2;" parent="1" edge="1">
          <mxGeometry width="50" height="50" relative="1" as="geometry">
            <mxPoint x="750" y="200" as="sourcePoint" />
            <mxPoint x="610" y="200" as="targetPoint" />
          </mxGeometry>
        </mxCell>
        <mxCell id="ZBwO2b9oNykHJdR8bDc2-112" value="" style="endArrow=classic;html=1;rounded=0;strokeWidth=2;" parent="1" edge="1">
          <mxGeometry width="50" height="50" relative="1" as="geometry">
            <mxPoint x="820" y="270" as="sourcePoint" />
            <mxPoint x="820" y="320" as="targetPoint" />
          </mxGeometry>
        </mxCell>
        <mxCell id="ZBwO2b9oNykHJdR8bDc2-113" value="3:searchHireInfo()" style="text;html=1;resizable=0;autosize=1;align=left;verticalAlign=middle;points=[];fillColor=none;strokeColor=none;rounded=0;" parent="1" vertex="1">
          <mxGeometry x="360" y="135" width="120" height="30" as="geometry" />
        </mxCell>
        <mxCell id="ZBwO2b9oNykHJdR8bDc2-114" value="3.1:sendSearchHireInfo()" style="text;html=1;resizable=0;autosize=1;align=left;verticalAlign=middle;points=[];fillColor=none;strokeColor=none;rounded=0;" parent="1" vertex="1">
          <mxGeometry x="610" y="135" width="160" height="30" as="geometry" />
        </mxCell>
        <mxCell id="ZBwO2b9oNykHJdR8bDc2-115" value="2:startInterface()" style="text;html=1;resizable=0;autosize=1;align=center;verticalAlign=middle;points=[];fillColor=none;strokeColor=none;rounded=0;" parent="1" vertex="1">
          <mxGeometry x="620" y="210" width="110" height="30" as="geometry" />
        </mxCell>
        <mxCell id="ZBwO2b9oNykHJdR8bDc2-116" value="1*[For all HireInfo]:getHireInfo()" style="text;html=1;resizable=0;autosize=1;align=left;verticalAlign=middle;points=[];fillColor=none;strokeColor=none;rounded=0;" parent="1" vertex="1">
          <mxGeometry x="830" y="280" width="190" height="30" as="geometry" />
        </mxCell>
        <mxCell id="ZBwO2b9oNykHJdR8bDc2-117" value="" style="rounded=0;whiteSpace=wrap;html=1;strokeWidth=2;" parent="1" vertex="1">
          <mxGeometry x="40" y="40" width="200" height="40" as="geometry" />
        </mxCell>
        <mxCell id="ZBwO2b9oNykHJdR8bDc2-118" value="&lt;font style=&quot;font-size: 16px;&quot;&gt;&lt;b&gt;sd Search hire info&lt;/b&gt;&lt;/font&gt;" style="text;html=1;resizable=0;autosize=1;align=center;verticalAlign=middle;points=[];fillColor=none;strokeColor=none;rounded=0;strokeWidth=2;" parent="1" vertex="1">
          <mxGeometry x="55" y="45" width="170" height="30" as="geometry" />
        </mxCell>
        <mxCell id="ZBwO2b9oNykHJdR8bDc2-119" value="" style="group" parent="1" vertex="1" connectable="0">
          <mxGeometry x="40" y="1060" width="1080" height="480" as="geometry" />
        </mxCell>
        <mxCell id="ZBwO2b9oNykHJdR8bDc2-120" value="" style="rounded=0;whiteSpace=wrap;html=1;strokeWidth=2;" parent="ZBwO2b9oNykHJdR8bDc2-119" vertex="1">
          <mxGeometry width="1080" height="480" as="geometry" />
        </mxCell>
        <mxCell id="ZBwO2b9oNykHJdR8bDc2-121" value="" style="rounded=0;whiteSpace=wrap;html=1;strokeWidth=2;" parent="ZBwO2b9oNykHJdR8bDc2-119" vertex="1">
          <mxGeometry width="200" height="40" as="geometry" />
        </mxCell>
        <mxCell id="ZBwO2b9oNykHJdR8bDc2-122" value="&lt;font style=&quot;font-size: 16px;&quot;&gt;&lt;b&gt;sd Apply to hire info&lt;/b&gt;&lt;/font&gt;" style="text;html=1;resizable=0;autosize=1;align=center;verticalAlign=middle;points=[];fillColor=none;strokeColor=none;rounded=0;strokeWidth=2;" parent="ZBwO2b9oNykHJdR8bDc2-119" vertex="1">
          <mxGeometry x="10" y="5" width="180" height="30" as="geometry" />
        </mxCell>
        <mxCell id="ZBwO2b9oNykHJdR8bDc2-123" value="1*[For all HireInfo]:getHireInfo()&lt;br&gt;4.1.1:getHireInfoDetails()" style="text;html=1;resizable=0;autosize=1;align=left;verticalAlign=middle;points=[];fillColor=none;strokeColor=none;rounded=0;" parent="ZBwO2b9oNykHJdR8bDc2-119" vertex="1">
          <mxGeometry x="400" y="235" width="190" height="40" as="geometry" />
        </mxCell>
        <mxCell id="ZBwO2b9oNykHJdR8bDc2-149" value="" style="ellipse;shape=umlEntity;whiteSpace=wrap;html=1;" parent="ZBwO2b9oNykHJdR8bDc2-119" vertex="1">
          <mxGeometry x="860" y="100" width="80" height="80" as="geometry" />
        </mxCell>
        <mxCell id="ZBwO2b9oNykHJdR8bDc2-150" value="newAp:Application" style="text;html=1;resizable=0;autosize=1;align=center;verticalAlign=middle;points=[];fillColor=none;strokeColor=none;rounded=0;" parent="ZBwO2b9oNykHJdR8bDc2-119" vertex="1">
          <mxGeometry x="840" y="180" width="120" height="30" as="geometry" />
        </mxCell>
        <mxCell id="ZBwO2b9oNykHJdR8bDc2-126" value="" style="endArrow=none;html=1;rounded=0;fontSize=11;strokeWidth=2;" parent="ZBwO2b9oNykHJdR8bDc2-119" edge="1">
          <mxGeometry width="50" height="50" relative="1" as="geometry">
            <mxPoint x="690" y="300" as="sourcePoint" />
            <mxPoint x="840" y="210" as="targetPoint" />
            <Array as="points" />
          </mxGeometry>
        </mxCell>
        <mxCell id="EPiQ3CMDJYq5J39bSPAR-2" value="" style="endArrow=classic;html=1;rounded=0;" parent="ZBwO2b9oNykHJdR8bDc2-119" edge="1">
          <mxGeometry width="50" height="50" relative="1" as="geometry">
            <mxPoint x="850" y="220" as="sourcePoint" />
            <mxPoint x="690" y="320" as="targetPoint" />
          </mxGeometry>
        </mxCell>
        <mxCell id="EPiQ3CMDJYq5J39bSPAR-3" value="5.1.2:increaseApplicantNum()" style="text;html=1;strokeColor=none;fillColor=none;align=center;verticalAlign=middle;whiteSpace=wrap;rounded=0;" parent="ZBwO2b9oNykHJdR8bDc2-119" vertex="1">
          <mxGeometry x="820" y="285" width="60" height="30" as="geometry" />
        </mxCell>
        <mxCell id="ZBwO2b9oNykHJdR8bDc2-127" value="" style="shape=umlBoundary;whiteSpace=wrap;html=1;" parent="1" vertex="1">
          <mxGeometry x="335" y="1170" width="100" height="80" as="geometry" />
        </mxCell>
        <mxCell id="ZBwO2b9oNykHJdR8bDc2-128" value="" style="ellipse;shape=umlEntity;whiteSpace=wrap;html=1;" parent="1" vertex="1">
          <mxGeometry x="630" y="1360" width="80" height="80" as="geometry" />
        </mxCell>
        <mxCell id="ZBwO2b9oNykHJdR8bDc2-129" value="" style="ellipse;shape=umlControl;whiteSpace=wrap;html=1;" parent="1" vertex="1">
          <mxGeometry x="635" y="1170" width="70" height="80" as="geometry" />
        </mxCell>
        <mxCell id="ZBwO2b9oNykHJdR8bDc2-130" value="Normal User" style="shape=umlActor;verticalLabelPosition=bottom;verticalAlign=top;html=1;outlineConnect=0;" parent="1" vertex="1">
          <mxGeometry x="100" y="1170" width="40" height="80" as="geometry" />
        </mxCell>
        <mxCell id="ZBwO2b9oNykHJdR8bDc2-131" value=":ApplyHireInfoUI" style="text;html=1;resizable=0;autosize=1;align=center;verticalAlign=middle;points=[];fillColor=none;strokeColor=none;rounded=0;" parent="1" vertex="1">
          <mxGeometry x="330" y="1250" width="110" height="30" as="geometry" />
        </mxCell>
        <mxCell id="ZBwO2b9oNykHJdR8bDc2-132" value=":ApplyHireInfo" style="text;html=1;resizable=0;autosize=1;align=center;verticalAlign=middle;points=[];fillColor=none;strokeColor=none;rounded=0;" parent="1" vertex="1">
          <mxGeometry x="620" y="1250" width="100" height="30" as="geometry" />
        </mxCell>
        <mxCell id="ZBwO2b9oNykHJdR8bDc2-133" value=":HireInfo" style="text;html=1;resizable=0;autosize=1;align=center;verticalAlign=middle;points=[];fillColor=none;strokeColor=none;rounded=0;" parent="1" vertex="1">
          <mxGeometry x="635" y="1440" width="70" height="30" as="geometry" />
        </mxCell>
        <mxCell id="ZBwO2b9oNykHJdR8bDc2-134" value="" style="endArrow=none;html=1;rounded=0;strokeWidth=2;" parent="1" edge="1">
          <mxGeometry width="50" height="50" relative="1" as="geometry">
            <mxPoint x="320" y="1210" as="sourcePoint" />
            <mxPoint x="170" y="1210" as="targetPoint" />
          </mxGeometry>
        </mxCell>
        <mxCell id="ZBwO2b9oNykHJdR8bDc2-135" value="" style="endArrow=none;html=1;rounded=0;strokeWidth=2;" parent="1" edge="1">
          <mxGeometry width="50" height="50" relative="1" as="geometry">
            <mxPoint x="625" y="1209.5" as="sourcePoint" />
            <mxPoint x="450" y="1209.5" as="targetPoint" />
          </mxGeometry>
        </mxCell>
        <mxCell id="ZBwO2b9oNykHJdR8bDc2-136" value="" style="endArrow=none;html=1;rounded=0;entryX=0.509;entryY=1.1;entryDx=0;entryDy=0;entryPerimeter=0;strokeWidth=2;" parent="1" edge="1">
          <mxGeometry width="50" height="50" relative="1" as="geometry">
            <mxPoint x="671" y="1350" as="sourcePoint" />
            <mxPoint x="671.1700000000001" y="1283" as="targetPoint" />
          </mxGeometry>
        </mxCell>
        <mxCell id="ZBwO2b9oNykHJdR8bDc2-137" value="" style="endArrow=classic;html=1;rounded=0;strokeWidth=2;" parent="1" edge="1">
          <mxGeometry width="50" height="50" relative="1" as="geometry">
            <mxPoint x="180" y="1200" as="sourcePoint" />
            <mxPoint x="310" y="1200" as="targetPoint" />
          </mxGeometry>
        </mxCell>
        <mxCell id="ZBwO2b9oNykHJdR8bDc2-138" value="" style="endArrow=classic;html=1;rounded=0;strokeWidth=2;" parent="1" edge="1">
          <mxGeometry width="50" height="50" relative="1" as="geometry">
            <mxPoint x="460" y="1200" as="sourcePoint" />
            <mxPoint x="610" y="1200" as="targetPoint" />
          </mxGeometry>
        </mxCell>
        <mxCell id="ZBwO2b9oNykHJdR8bDc2-139" value="" style="endArrow=classic;html=1;rounded=0;strokeWidth=2;" parent="1" edge="1">
          <mxGeometry width="50" height="50" relative="1" as="geometry">
            <mxPoint x="610" y="1220" as="sourcePoint" />
            <mxPoint x="460" y="1220" as="targetPoint" />
          </mxGeometry>
        </mxCell>
        <mxCell id="ZBwO2b9oNykHJdR8bDc2-140" value="" style="endArrow=classic;html=1;rounded=0;strokeWidth=2;" parent="1" edge="1">
          <mxGeometry width="50" height="50" relative="1" as="geometry">
            <mxPoint x="660" y="1290" as="sourcePoint" />
            <mxPoint x="660" y="1340" as="targetPoint" />
          </mxGeometry>
        </mxCell>
        <mxCell id="ZBwO2b9oNykHJdR8bDc2-141" value="3:searchHireInfo()&lt;br&gt;4:selectHireInfoDetail()&lt;br&gt;5:createNewApplication()" style="text;html=1;resizable=0;autosize=1;align=left;verticalAlign=middle;points=[];fillColor=none;strokeColor=none;rounded=0;" parent="1" vertex="1">
          <mxGeometry x="180" y="1130" width="160" height="60" as="geometry" />
        </mxCell>
        <mxCell id="ZBwO2b9oNykHJdR8bDc2-142" value="3.1:sendSearchHireInfos()&lt;br&gt;4.1:sendSelectHireInfoDetail()&lt;br&gt;5.1:sendCreateNewApplication()" style="text;html=1;resizable=0;autosize=1;align=left;verticalAlign=middle;points=[];fillColor=none;strokeColor=none;rounded=0;" parent="1" vertex="1">
          <mxGeometry x="460" y="1130" width="200" height="60" as="geometry" />
        </mxCell>
        <mxCell id="ZBwO2b9oNykHJdR8bDc2-143" value="2:startInterface()" style="text;html=1;resizable=0;autosize=1;align=center;verticalAlign=middle;points=[];fillColor=none;strokeColor=none;rounded=0;" parent="1" vertex="1">
          <mxGeometry x="480" y="1230" width="110" height="30" as="geometry" />
        </mxCell>
        <mxCell id="ZBwO2b9oNykHJdR8bDc2-146" value="" style="endArrow=none;html=1;rounded=0;strokeWidth=2;" parent="1" edge="1">
          <mxGeometry width="50" height="50" relative="1" as="geometry">
            <mxPoint x="893" y="1209.5" as="sourcePoint" />
            <mxPoint x="718" y="1209.5" as="targetPoint" />
          </mxGeometry>
        </mxCell>
        <mxCell id="ZBwO2b9oNykHJdR8bDc2-147" value="" style="endArrow=classic;html=1;rounded=0;strokeWidth=2;" parent="1" edge="1">
          <mxGeometry width="50" height="50" relative="1" as="geometry">
            <mxPoint x="730" y="1200" as="sourcePoint" />
            <mxPoint x="880" y="1200" as="targetPoint" />
          </mxGeometry>
        </mxCell>
        <mxCell id="ZBwO2b9oNykHJdR8bDc2-148" value="5.1.1:Application()" style="text;html=1;resizable=0;autosize=1;align=center;verticalAlign=middle;points=[];fillColor=none;strokeColor=none;rounded=0;" parent="1" vertex="1">
          <mxGeometry x="740" y="1160" width="120" height="30" as="geometry" />
        </mxCell>
        <mxCell id="UfAoR5vMIaZCu09eKpud-1" value="" style="verticalLabelPosition=bottom;html=1;verticalAlign=top;strokeWidth=2;shape=mxgraph.lean_mapping.physical_pull;pointerEvents=1;rotation=-180;" parent="1" vertex="1">
          <mxGeometry x="860" y="150" width="40" height="30" as="geometry" />
        </mxCell>
        <mxCell id="UfAoR5vMIaZCu09eKpud-2" value="2: sortByClosedDate()" style="text;html=1;align=center;verticalAlign=middle;resizable=0;points=[];autosize=1;strokeColor=none;fillColor=none;" parent="1" vertex="1">
          <mxGeometry x="875" y="125" width="140" height="30" as="geometry" />
        </mxCell>
      </root>
    </mxGraphModel>
  </diagram>
</mxfile>
